<svg xmlns="http://www.w3.org/2000/svg" xmlns:xlink="http://www.w3.org/1999/xlink" fill="none" version="1.1" width="1920" height="1080" viewBox="0 0 1920 1080"><defs><filter id="master_svg0_113_337" filterUnits="objectBoundingBox" color-interpolation-filters="sRGB" x="-100" y="-100" width="1365" height="855"><feFlood flood-opacity="0" result="BackgroundImageFix"/><feColorMatrix in="SourceAlpha" type="matrix" values="0 0 0 0 0 0 0 0 0 0 0 0 0 0 0 0 0 0 127 0"/><feOffset dy="0" dx="0"/><feGaussianBlur stdDeviation="25"/><feColorMatrix type="matrix" values="0 0 0 0 0 0 0 0 0 0 0 0 0 0 0 0 0 0 0.10000000149011612 0"/><feBlend mode="normal" in2="BackgroundImageFix" result="effect1_dropShadow"/><feBlend mode="normal" in="SourceGraphic" in2="effect1_dropShadow" result="shape"/></filter></defs><g><g><rect x="0" y="0" width="1920" height="1080" rx="0" fill="#F3F3F3" fill-opacity="1"/></g><g><g filter="url(#master_svg0_113_337)"><rect x="648" y="240" width="1165" height="655" rx="0" fill="#FFFFFF" fill-opacity="1"/><rect x="650" y="242" width="1161" height="651" rx="0" fill-opacity="0" stroke-opacity="1" stroke="#FF0000" fill="none" stroke-width="4"/></g><g><path d="M731.176,692.504L723.4,692.504L723.4,743.768L731.176,743.768L731.176,721.376L751.48,721.376L751.48,743.768L759.256,743.768L759.256,692.504L751.48,692.504L751.48,714.4639999999999L731.176,714.4639999999999L731.176,692.504ZM789.856,692.504L783.376,692.504L764.728,743.768L772.936,743.768L776.896,732.32L796.336,732.32L800.296,743.768L808.504,743.768L789.856,692.504ZM779.128,725.408L786.544,703.016L786.688,703.016L794.104,725.408L779.128,725.408ZM832.408,692.504L813.976,692.504L813.976,743.768L821.752,743.768L821.752,723.752L833.848,723.752C836.08,723.752,838.168,723.32,840.112,722.528C842.056,721.736,843.712,720.5840000000001,845.152,719.144C846.52,717.776,847.672,716.12,848.4639999999999,714.248C849.256,712.448,849.616,710.432,849.616,708.344C849.616,705.824,849.184,703.448,848.248,701.36C847.312,699.272,845.872,697.544,844.072,696.104C843.352,695.528,842.6320000000001,695.024,841.912,694.592C841.12,694.16,840.328,693.8,839.392,693.44C838.456,693.152,837.448,692.936,836.3679999999999,692.72C835.216,692.576,833.92,692.504,832.408,692.504ZM833.488,716.408L821.752,716.408L821.752,699.848L833.272,699.848C834.424,699.848,835.432,699.992,836.296,700.208C837.088,700.424,837.88,700.784,838.528,701.288C839.608,701.936,840.4,702.872,840.976,704.024C841.552,705.248,841.84,706.616,841.84,708.128C841.84,709.28,841.624,710.36,841.264,711.296C840.832,712.304,840.256,713.168,839.5360000000001,713.96C838.744,714.752,837.88,715.328,836.872,715.76C835.792,716.192,834.712,716.408,833.488,716.408ZM875.104,692.504L856.672,692.504L856.672,743.768L864.448,743.768L864.448,723.752L876.544,723.752C878.7760000000001,723.752,880.864,723.32,882.808,722.528C884.752,721.736,886.408,720.5840000000001,887.848,719.144C889.216,717.776,890.3679999999999,716.12,891.16,714.248C891.952,712.448,892.312,710.432,892.312,708.344C892.312,705.824,891.88,703.448,890.944,701.36C890.008,699.272,888.568,697.544,886.768,696.104C886.048,695.528,885.328,695.024,884.608,694.592C883.816,694.16,883.024,693.8,882.088,693.44C881.152,693.152,880.144,692.936,879.064,692.72C877.912,692.576,876.616,692.504,875.104,692.504ZM876.184,716.408L864.448,716.408L864.448,699.848L875.968,699.848C877.12,699.848,878.1279999999999,699.992,878.992,700.208C879.784,700.424,880.576,700.784,881.2239999999999,701.288C882.304,701.936,883.096,702.872,883.672,704.024C884.248,705.248,884.5360000000001,706.616,884.5360000000001,708.128C884.5360000000001,709.28,884.3199999999999,710.36,883.96,711.296C883.528,712.304,882.952,713.168,882.232,713.96C881.44,714.752,880.576,715.328,879.568,715.76C878.488,716.192,877.408,716.408,876.184,716.408ZM901.096,692.504L892.888,692.504L908.296,722.672L908.296,743.768L915.64,743.768L915.64,722.672L931.048,692.504L922.84,692.504L911.968,715.256L901.096,692.504Z" fill="#FFA100" fill-opacity="1"/><path d="M743.488,778.504L723.4,778.504L723.4,829.768L745.144,829.768C747.088,829.768,748.96,829.408,750.688,828.688C752.344,827.968,753.856,826.96,755.152,825.664C756.376,824.3679999999999,757.384,822.856,758.176,821.056C758.896,819.256,759.256,817.312,759.256,815.2239999999999C759.256,812.344,758.5360000000001,809.8240000000001,757.096,807.592C755.5840000000001,805.432,753.568,804.064,750.904,803.4159999999999L750.904,803.272C753.28,802.192,755.08,800.824,756.448,799.096C757.816,797.44,758.4639999999999,795.136,758.4639999999999,792.256C758.4639999999999,788.008,757.168,784.696,754.504,782.176C751.84,779.728,748.168,778.504,743.488,778.504ZM742.624,800.104L731.176,800.104L731.176,785.4159999999999L742.624,785.4159999999999C745,785.4159999999999,746.944,786.064,748.456,787.36C749.968,788.656,750.688,790.456,750.688,792.76C750.688,794.848,750.04,796.576,748.672,797.944C747.304,799.384,745.288,800.104,742.624,800.104ZM743.344,822.424L731.176,822.424L731.176,807.016L743.344,807.016C745.792,807.016,747.736,807.736,749.248,809.104C750.76,810.544,751.48,812.4159999999999,751.48,814.72C751.48,817.024,750.76,818.896,749.248,820.264C747.736,821.704,745.792,822.424,743.344,822.424ZM775.096,778.504L767.32,778.504L767.32,829.768L775.096,829.768L775.096,778.504ZM805.912,778.504L785.896,778.504L785.896,829.768L793.672,829.768L793.672,807.88L803.608,807.88L814.192,829.768L823.408,829.768L811.528,807.016C814.696,805.936,817.144,804.064,818.872,801.544C820.6,799.024,821.4639999999999,796.144,821.4639999999999,792.832C821.4639999999999,790.744,821.032,788.656,820.096,786.712C819.16,784.768,817.936,783.184,816.352,781.888C815.128,780.808,813.688,780.016,812.104,779.3679999999999C810.52,778.792,808.432,778.504,805.912,778.504ZM805.624,800.968L793.672,800.968L793.672,785.4159999999999L806.128,785.4159999999999C808.576,785.4159999999999,810.52,786.064,811.96,787.288C813.4,788.512,814.12,790.384,814.12,792.832C814.12,795.28,813.328,797.224,811.744,798.736C810.16,800.248,808.144,800.968,805.624,800.968ZM859.048,778.504L823.192,778.504L823.192,785.4159999999999L837.232,785.4159999999999L837.232,829.768L845.008,829.768L845.008,785.4159999999999L859.048,785.4159999999999L859.048,778.504ZM872.296,778.504L864.52,778.504L864.52,829.768L872.296,829.768L872.296,807.376L892.6,807.376L892.6,829.768L900.376,829.768L900.376,778.504L892.6,778.504L892.6,800.4639999999999L872.296,800.4639999999999L872.296,778.504ZM929.248,778.504L911.1759999999999,778.504L911.1759999999999,829.768L928.888,829.768C932.056,829.768,935.008,829.048,937.744,827.608C940.48,826.24,942.784,824.08,944.5840000000001,821.2719999999999C945.16,820.336,945.664,819.472,946.024,818.6800000000001C946.384,817.888,946.672,816.88,946.888,815.656C947.104,814.432,947.248,812.92,947.3199999999999,811.12C947.392,809.3199999999999,947.4639999999999,806.944,947.4639999999999,803.992C947.4639999999999,801.328,947.4639999999999,799.096,947.392,797.44C947.3199999999999,795.784,947.248,794.344,947.032,793.12C946.816,791.896,946.528,790.888,946.168,789.952C945.808,789.016,945.232,788.008,944.512,786.784C943,784.12,940.84,782.104,938.1759999999999,780.664C935.512,779.224,932.488,778.504,929.248,778.504ZM928.528,822.424L918.952,822.424L918.952,785.848L928.312,785.848C930.4,785.848,932.2,786.208,933.568,786.856C934.936,787.504,936.232,788.656,937.384,790.168C937.888,790.816,938.248,791.4639999999999,938.608,792.112C938.896,792.76,939.112,793.552,939.328,794.4159999999999C939.472,795.352,939.544,796.432,939.616,797.656C939.688,798.88,939.688,800.392,939.688,802.192L939.688,806.008C939.688,807.736,939.688,809.1759999999999,939.688,810.4C939.616,811.624,939.544,812.704,939.472,813.568C939.328,814.504,939.112,815.296,938.896,815.944C938.608,816.592,938.248,817.312,937.744,817.96C935.7280000000001,820.912,932.6320000000001,822.424,928.528,822.424ZM975.04,778.504L968.56,778.504L949.912,829.768L958.12,829.768L962.08,818.3199999999999L981.52,818.3199999999999L985.48,829.768L993.688,829.768L975.04,778.504ZM964.312,811.408L971.7280000000001,789.016L971.8720000000001,789.016L979.288,811.408L964.312,811.408ZM995.56,778.504L987.352,778.504L1002.76,808.672L1002.76,829.768L1010.104,829.768L1010.104,808.672L1025.512,778.504L1017.304,778.504L1006.432,801.256L995.56,778.504Z" fill="#FF0000" fill-opacity="1"/></g><g><path d="M753.424,303.644C748.96,303.644,744.784,304.364,741.184,305.804C737.44,307.244,734.272,309.404,731.536,312.14C728.8,315.02,726.784,318.476,725.344,322.508C723.904,326.68399999999997,723.184,331.29200000000003,723.184,336.476C723.184,345.548,725.488,352.46,729.952,357.5C734.416,362.54,740.32,364.988,747.664,364.988C748.96,364.988,750.256,364.844,751.696,364.7C753.136,364.556,754.432,364.124,755.44,363.692L755.728,363.692L734.128,407.036L750.544,407.036L778.192,351.74C779.344,349.43600000000004,780.208,346.844,780.928,343.964C781.648,341.084,781.936,338.06,781.936,334.892C781.936,330.284,781.216,326.108,779.632,322.22C778.048,318.476,776.032,315.164,773.44,312.428C770.704,309.692,767.68,307.532,764.224,305.948C760.768,304.364,757.168,303.644,753.424,303.644ZM737.872,335.18C737.872,329.70799999999997,739.312,325.532,742.192,322.652C744.928,319.772,748.384,318.332,752.56,318.332C757.168,318.332,760.768,319.628,763.36,322.364C765.952,325.1,767.248,329.42,767.248,335.18C767.248,340.94,765.808,345.116,762.928,347.852C760.048,350.58799999999997,756.592,352.028,752.56,352.028C748.528,352.028,745.072,350.58799999999997,742.192,347.852C739.312,345.116,737.872,340.94,737.872,335.18ZM811.744,392.348L797.056,392.348L797.056,407.036L811.744,407.036L811.744,392.348ZM854.8,303.644C850.912,303.644,847.312,304.364,843.856,305.804C840.4,307.388,837.376,309.404,834.784,311.996C832.192,314.73199999999997,830.176,317.756,828.592,321.356C827.008,324.956,826.288,328.988,826.288,333.164L840.976,333.164C841.408,328.556,842.992,324.956,845.728,322.22C848.4639999999999,319.628,851.92,318.332,855.952,318.332C858.112,318.332,860.1279999999999,318.764,862,319.628C863.7280000000001,320.492,865.168,321.644,866.4639999999999,322.94C867.616,324.38,868.48,325.964,869.2,327.692C869.7760000000001,329.42,870.064,331.148,870.064,332.876C870.064,335.612,869.6320000000001,337.628,868.768,339.212C867.76,340.796,866.4639999999999,342.668,864.88,344.828L826.288,393.212L826.288,407.036L884.752,407.036L884.752,392.348L845.5840000000001,392.348C851.056,385.43600000000004,855.808,379.532,859.696,374.63599999999997C863.5840000000001,369.884,866.752,365.852,869.344,362.68399999999997C871.792,359.516,873.808,356.924,875.248,355.052C876.688,353.18,877.84,351.884,878.704,350.876C879.424,349.868,880,349.148,880.288,348.716C880.432,348.284,880.72,347.996,880.864,347.70799999999997C882.448,344.828,883.6,342.236,884.032,339.788C884.4639999999999,337.34000000000003,884.752,335.18,884.752,333.02C884.752,328.988,884.032,325.1,882.448,321.5C880.864,317.9,878.848,314.876,876.112,312.14C873.376,309.548,870.208,307.532,866.608,305.948C863.008,304.364,858.976,303.644,854.8,303.644ZM925.36,303.644C921.184,303.644,917.44,304.364,913.84,305.948C910.24,307.532,907.216,309.548,904.624,312.284C901.888,315.02,899.8720000000001,318.044,898.288,321.644C896.704,325.244,895.984,329.132,895.984,333.308C895.984,337.916,896.992,341.804,898.864,344.972C900.736,348.14,903.184,351.164,906.208,354.044C902.1759999999999,356.63599999999997,899.152,359.948,897.136,363.836C895.12,367.724,894.112,372.188,894.112,377.084C894.112,381.548,894.976,385.724,896.56,389.468C898.144,393.212,900.448,396.38,903.328,399.116C906.064,401.852,909.376,404.012,913.264,405.596C917.152,407.18,921.184,407.9,925.504,407.9C929.8240000000001,407.9,933.856,407.036,937.744,405.452C941.488,403.868,944.8,401.70799999999997,947.6800000000001,398.972C950.4159999999999,396.236,952.72,393.068,954.304,389.324C955.888,385.58,956.608,381.548,956.608,377.084C956.608,372.332,955.6,368.012,953.5840000000001,363.98C951.568,359.948,948.544,356.63599999999997,944.512,354.044C947.5360000000001,351.308,950.1279999999999,348.284,952,344.972C953.8720000000001,341.804,954.736,337.916,954.736,333.308C954.736,329.132,954.016,325.244,952.432,321.644C950.848,318.044,948.832,314.876,946.24,312.14C943.504,309.548,940.48,307.532,936.88,305.948C933.28,304.364,929.5360000000001,303.644,925.36,303.644ZM910.672,333.02C910.672,328.556,912.112,325.1,914.992,322.364C917.7280000000001,319.628,921.184,318.332,925.216,318.332C929.5360000000001,318.332,933.136,319.628,935.8720000000001,322.364C938.608,325.1,940.048,328.556,940.048,333.02C940.048,337.628,938.608,341.228,935.7280000000001,343.82C932.848,346.41200000000003,929.392,347.70799999999997,925.36,347.70799999999997C921.184,347.70799999999997,917.7280000000001,346.41200000000003,914.992,343.82C912.112,341.228,910.672,337.628,910.672,333.02ZM908.8,376.94C908.8,374.63599999999997,909.232,372.476,910.24,370.46C911.104,368.58799999999997,912.256,366.86,913.84,365.42C915.28,363.98,917.008,362.828,919.024,361.964C920.896,361.1,923.056,360.668,925.216,360.668C927.52,360.668,929.6800000000001,361.1,931.84,361.964C933.856,362.828,935.5840000000001,363.98,937.168,365.42C938.608,367.004,939.76,368.73199999999997,940.624,370.604C941.488,372.62,941.92,374.78,941.92,376.94C941.92,379.1,941.488,381.26,940.624,383.132C939.76,385.004,938.608,386.73199999999997,937.168,388.31600000000003C935.5840000000001,389.9,933.856,391.052,931.84,391.916C929.8240000000001,392.78,927.664,393.212,925.36,393.212C923.056,393.212,920.896,392.78,918.88,391.916C916.864,391.052,915.136,389.9,913.696,388.31600000000003C912.112,386.876,910.96,385.148,910.096,383.132C909.232,381.26,908.8,379.1,908.8,376.94Z" fill="#FF0000" fill-opacity="1"/></g><g><path d="M1041.352,531.5Q1036.6,531.932,1027.384,533.0840000000001L1023.208,517.676Q1025.08,517.532,1026.232,516.956Q1027.384,516.38,1028.68,515.0840000000001Q1040.056,504.86,1049.56,492.33199L1065.544,501.836L1059.784,507.308L1048.264,517.82L1065.976,516.092Q1062.664,511.916,1061.656,510.764L1072.744,501.26Q1076.056,504.284,1080.448,509.324Q1084.84,514.364,1088.728,519.116L1093.336,524.732L1081.24,534.524L1076.344,528.62Q1056.328,530.06,1041.352,531.5ZM1109.176,546.332Q1101.256,545.9,1097.872,542.3Q1094.488,538.7,1094.488,531.356L1094.488,497.084L1113.064,497.084L1113.064,506.876Q1134.088,500.396,1140.568,497.372L1148.632,510.908Q1143.016,513.068,1132.576,516.38Q1122.136,519.692,1113.064,522.14L1113.064,525.452Q1113.064,528.332,1114.288,529.268Q1115.512,530.204,1118.968,530.492Q1120.696,530.636,1124.152,530.636Q1127.608,530.636,1129.192,530.492Q1133.656,530.06,1135.024,529.052Q1136.392,528.044,1136.68,524.876Q1137.256,518.54,1137.256,515.372L1152.52,520.268Q1151.944,527.324,1151.224,533.0840000000001Q1150.216,540.14,1146.976,542.948Q1143.7359999999999,545.756,1136.248,546.332Q1130.2,546.764,1124.152,546.764Q1116.52,546.764,1109.176,546.332ZM1029.4,597.308L1029.4,535.9639999999999L1087.576,535.9639999999999L1087.576,583.196Q1087.576,591.26,1084.048,594.572Q1080.52,597.884,1072.168,598.172Q1066.84,598.172,1060.36,597.452L1057.624,584.492Q1062.952,585.212,1066.84,585.212Q1068.856,585.212,1069.432,584.276Q1070.008,583.34,1070.008,580.46L1070.008,580.172L1047.256,580.172L1047.256,597.308L1029.4,597.308ZM1109.752,597.02Q1101.256,596.156,1097.872,592.7Q1094.488,589.244,1094.488,580.892L1094.488,549.644L1113.064,549.644L1113.064,558.14Q1131.352,551.804,1140.712,547.196L1148.488,561.74Q1143.592,563.9,1139.416,565.484L1153.096,569.66Q1152.952,575.708,1151.8,582.476Q1150.648,590.108,1147.2640000000001,593.204Q1143.88,596.3,1135.528,597.02Q1129.336,597.596,1122.424,597.596Q1115.512,597.596,1109.752,597.02ZM1070.008,553.8199999999999L1070.008,548.348L1047.256,548.348L1047.256,553.8199999999999L1070.008,553.8199999999999ZM1047.256,563.612L1047.256,569.228L1070.008,569.228L1070.008,563.612L1047.256,563.612ZM1137.256,574.124Q1137.688,570.236,1137.688,566.06Q1127.608,569.948,1113.064,574.556Q1113.208,578.156,1114.648,579.812Q1116.088,581.468,1119.688,581.756Q1121.272,581.9,1124.584,581.9Q1127.752,581.9,1129.336,581.756Q1133.944,581.324,1135.384,580.028Q1136.824,578.732,1137.256,574.124ZM1138.552,598.172Q1145.032,605.948,1154.392,621.644L1134.952,628.988Q1130.488,620.06,1120.984,603.5L1138.552,598.172ZM1019.752,624.38Q1027.528,614.156,1033.72,598.748L1052.008,603.356Q1046.248,619.9159999999999,1039.768,631.292L1019.752,624.38ZM1107.016,599.0360000000001Q1113.9279999999999,613.58,1117.816,623.0840000000001L1098.376,627.98Q1093.336,613.436,1089.304,604.508L1107.016,599.0360000000001ZM1076.344,600.332Q1077.9279999999999,604.94,1080.016,612.428Q1082.104,619.9159999999999,1083.256,625.1L1063.24,628.988Q1062.376,623.2280000000001,1060.792,616.1Q1059.208,608.972,1057.624,604.076L1076.344,600.332ZM1210.12,499.244Q1206.232,514.22,1200.04,529.052L1200.04,629.2760000000001L1180.1680000000001,629.2760000000001L1180.1680000000001,566.348Q1174.552,574.844,1169.368,582.188L1162.024,556.556Q1170.808,544.46,1178.368,528.116Q1185.9279999999999,511.772,1190.824,494.636L1210.12,499.244ZM1205.8,542.732L1241.512,542.732L1241.512,530.924L1212.568,530.924L1212.568,512.492L1241.512,512.492L1241.512,495.788L1261.384,495.788L1261.384,512.492L1289.608,512.492L1289.608,530.924L1261.384,530.924L1261.384,542.732L1297.096,542.732L1297.096,561.74L1205.8,561.74L1205.8,542.732ZM1261.384,593.1320000000001L1261.384,606.092L1297.24,606.092L1297.24,625.244L1205.512,625.244L1205.512,606.092L1241.512,606.092L1241.512,593.1320000000001L1212.568,593.1320000000001L1212.568,574.556L1241.512,574.556L1241.512,565.628L1261.384,565.628L1261.384,574.556L1289.608,574.556L1289.608,593.1320000000001L1261.384,593.1320000000001ZM1313.512,629.42L1313.512,499.1L1436.2,499.1L1436.2,629.42L1417.336,629.42L1417.336,624.092L1332.376,624.092L1332.376,629.42L1313.512,629.42ZM1407.8319999999999,607.532L1417.336,607.532L1417.336,515.66L1332.376,515.66L1332.376,607.532L1339.576,607.532L1334.104,592.988Q1346.488,590.108,1352.824,587.66Q1359.16,585.212,1361.824,582.62Q1364.488,580.028,1365.3519999999999,576.14Q1366.0720000000001,572.972,1366.216,570.236L1383.6399999999999,570.236Q1383.208,574.556,1382.056,579.164Q1398.184,585.644,1414.7440000000001,593.708L1407.8319999999999,607.532ZM1342.024,520.7L1407.4,520.7L1407.4,548.636L1342.024,548.636L1342.024,520.7ZM1359.304,538.124L1389.8319999999999,538.124L1389.8319999999999,532.22L1359.304,532.22L1359.304,538.124ZM1356.28,583.772L1338.856,583.772L1338.856,553.8199999999999L1410.568,553.8199999999999L1410.568,583.772L1393.288,583.772L1393.288,566.492L1356.28,566.492L1356.28,583.772ZM1376.008,591.26Q1366.216,602.204,1341.16,607.532L1405.96,607.532Q1387.24,597.02,1376.008,591.26Z" fill="#3D3D3D" fill-opacity="1"/></g><g><path d="M1414.9,822.2L1450.3,822.2L1450.3,836.1L1361.7,836.1L1361.7,822.2L1400.4,822.2L1400.4,805.4L1370.6,805.4L1370.6,791.8L1400.4,791.8L1400.4,776.6L1380.9,776.6Q1377.6,784.4,1373.8,790.6L1360.8,783.5Q1365.3,777.4,1369,768.6Q1372.7,759.8,1375.3,749.3L1389.3,752.5L1388.7,754.6Q1386,762.8,1386.1,762.7L1400.4,762.7L1400.4,746.3L1414.9,746.3L1414.9,762.7L1446.5,762.7L1446.5,776.6L1414.9,776.6L1414.9,791.8L1443.2,791.8L1443.2,805.4L1414.9,805.4L1414.9,822.2ZM1468.7,838.3L1468.7,750L1542,750L1542,838.2L1527.7,838.2L1527.7,832.5L1483,832.5L1483,838.3L1468.7,838.3ZM1527.7,783.4L1527.7,764.2L1483,764.2L1483,783.4L1527.7,783.4ZM1483,797.6L1483,818.2L1527.7,818.2L1527.7,797.6L1483,797.6Z" fill="#FF0000" fill-opacity="1"/><path d="M1625.5,802.4Q1629.1,810.2,1635.55,815.95Q1642,821.7,1652.2,826.1L1645.1,838.4Q1625.6,829.1,1616.9,811.3Q1613.4,818.7,1606.95,825.4Q1600.5,832.1,1590.3,838.9L1583.3,828.4L1583.3,837.9L1570.8,837.9L1570.8,745.39999L1583.3,745.39999L1583.3,762.8Q1590.7,767.5,1593.8,769.7L1593.8,758.9L1608.4,758.9L1608.5,745.39999L1621.7,745.39999L1621.7,758.9L1644.1,758.9L1644.1,789.1L1650.9,789.1L1650.9,802.4L1625.5,802.4ZM1556.3,797.6Q1557.8,790.5,1559.15,780.4Q1560.5,770.3,1561.1,761.6L1570.6,762.7Q1569.9,771.8,1568.5,782.4Q1567.1,793,1565.9,799.5L1556.3,797.6ZM1583.3,825.9Q1592.5,820.5,1598.1,814.85Q1603.7,809.2,1606.2,802.4L1587.9,802.4L1587.9,789.1L1608.4,789.1L1608.4,772.1L1596.9,772.1L1590.5,783.3Q1588.3,781.4,1583.3,777.6L1583.3,825.9ZM1630.9,772.1L1621.6,772.1L1621.5,788.6L1621.5,789.1L1630.9,789.1L1630.9,772.1ZM1746.4,796.7L1714.2,796.7L1714.2,824.6Q1714.2,830.1,1712.75,833.15Q1711.3,836.2,1708.1,837.5Q1704.9,838.8,1699.2,838.8Q1693.1,838.8,1687.1,838.2L1684.1,824.2Q1690.1,824.9,1694.6,824.9Q1696.7,824.9,1697.65,824.5Q1698.6,824.1,1698.85,823.25Q1699.1,822.4,1699.1,820.4L1699.1,796.7L1663.4,796.7L1668.2,751.4Q1686.1,751,1705.5,749.4Q1724.9,747.8,1738.8,745.49999L1741.9,759.7Q1729.5,761.5,1713.05,762.95Q1696.6,764.4,1681.8,765.3L1679.7,782.8L1699.1,782.8L1699.1,767.4L1714.2,767.4L1714.2,782.8L1746.4,782.8L1746.4,796.7ZM1730.2,798.8Q1734.1,802.9,1741.05,810.95Q1748,819,1753,825.2L1741.3,834.7Q1736.9,828.9,1730.4,821.05Q1723.9,813.2,1719.1,807.6L1730.2,798.8ZM1690.5,806.6Q1686.4,812.7,1680.15,820.4Q1673.9,828.1,1667.5,834.5L1656.6,825Q1663,819.1,1668.55,812.1Q1674.1,805.1,1677.9,799L1690.5,806.6Z" fill="#FFA100" fill-opacity="1"/></g></g></g></svg>