<svg xmlns="http://www.w3.org/2000/svg" xmlns:xlink="http://www.w3.org/1999/xlink" fill="none" version="1.1" width="1920" height="1080" viewBox="0 0 1920 1080"><g><g><rect x="0" y="0" width="1920" height="1080" rx="0" fill="#2B5CFF" fill-opacity="1"/></g><g><g><path d="M1159.8,370.3L1115.1,370.3L1115.1,333.1L1374.3,333.1L1374.3,370.3L1201.2,370.3L1201.2,384.1Q1201.2,392.2,1201.05,399.7Q1200.9,407.2,1200.9,414.4L1322.1,414.4Q1334.4,415,1342.35,422.65Q1350.3,430.3,1350.3,443.5L1350.3,533.8Q1350.3,544,1348.65,552.1Q1347,560.2,1342.35,567.1Q1337.7,574,1329.3,580.3Q1320.9,586.6,1307.7,592.9L1285.8,559Q1299,552.7,1304.25,546.1Q1309.5,539.5,1309.5,529.3L1309.5,451.6L1199.4,451.6Q1197,489.4,1191.3,515.2Q1185.6,541,1176.15,556.6Q1166.7,572.2,1153.65,578.95Q1140.6,585.7,1123.2,585.7L1108.2,585.7L1108.2,545.8L1120.5,545.8Q1125.3,545.8,1130.25,543.7Q1135.2,541.6,1139.55,535.45Q1143.9,529.3,1147.65,518.65Q1151.4,508,1154.1,490.75Q1156.8,473.5,1158.3,449.05Q1159.8,424.6,1159.8,391L1159.8,370.3ZM1552.2,322.9L1552.2,357.1L1632.3,357.1Q1653,357.1,1662.45,367Q1671.9,376.9,1671.9,394L1671.9,538.9Q1671.9,557.2,1661.4,569.65Q1650.9,582.1,1630.2,591.4L1608.9,560.5Q1605.9,567.4,1602.15,571.9Q1598.4,576.4,1593.9,578.8Q1589.4,581.2,1584,582.1Q1578.6,583,1572.3,583L1557,583L1557,562.3Q1551,575.2,1541.7,579.1Q1532.4,583,1520.4,583L1504.8,583L1504.8,548.5L1515.3,548.5Q1519.2,548.5,1522.5,545.95Q1525.8,543.4,1528.05,535.75Q1530.3,528.1,1531.5,513.7Q1532.7,499.3,1532.7,475.6L1532.7,415.9Q1523.7,419.8,1510.2,419.8L1500.9,419.8L1500.9,397.9L1490.1,397.9L1490.1,451.6L1510.2,444.7L1519.2,478.6L1490.1,489.1L1490.1,586.3L1452.9,586.3L1452.9,502.6L1415.1,516.4L1406.4,479.2L1452.9,463.9L1452.9,397.9L1445.4,397.9Q1444.8,421.3,1437.15,434.2Q1429.5,447.1,1411.8,447.1L1405.2,447.1L1405.2,411.1L1409.7,411.1Q1411.2,411.1,1412.4,409Q1413.6,406.9,1414.35,403.75Q1415.1,400.6,1415.55,396.85Q1416,393.1,1416,389.5L1416,334.6L1445.4,334.6L1445.4,362.5L1452.9,362.5L1452.9,322.9L1490.1,322.9L1490.1,362.5L1508.7,362.5L1508.7,385Q1511.7,384.7,1514.25,382Q1516.8,379.3,1516.8,373.9L1516.8,322.9L1552.2,322.9ZM1618.8,391.9L1618.8,476.5Q1618.8,508,1616.4,527.95Q1614,547.9,1609.5,559.6Q1620.9,554.5,1627.5,548.5Q1634.1,542.5,1634.1,533.5L1634.1,391.9L1618.8,391.9ZM1583.4,391.9L1568.1,391.9L1568.1,476.5Q1568.1,501.7,1566.45,519.1Q1564.8,536.5,1561.8,548.5L1567.5,548.5Q1571.4,548.5,1574.4,545.95Q1577.4,543.4,1579.35,535.75Q1581.3,528.1,1582.35,513.7Q1583.4,499.3,1583.4,475.6L1583.4,391.9Z" fill="#FFFFFF" fill-opacity="1"/></g><g><rect x="675" y="501" width="1245" height="233.53871154785156" rx="0" fill="#2B5CFF" fill-opacity="0.8999999761581421"/></g><g><rect x="675" y="477" width="1245" height="28" rx="0" fill="#2B5CFF" fill-opacity="1"/></g></g><g><path d="M512,734.8L565.688,734.8L565.688,555.5029999999999L626.297,555.5029999999999L626.297,510.8L451.6875,510.8L451.6875,555.5029999999999L512,555.5029999999999L512,734.8ZM660.797,734.8L714.5,734.8L714.5,642.8L788,642.8L788,734.8L841.3910000000001,734.8L841.3910000000001,510.8L788,510.8L788,596.3L714.5,596.3L714.5,510.8L660.797,510.8L660.797,734.8ZM892.797,734.8L946.5,734.8L946.5,510.8L892.797,510.8L892.797,734.8ZM997.797,734.8L1048.797,734.8L1048.797,660.534C1048.797,633.487,1044.297,602.816,1041.891,577.862L1043.391,577.862L1065.297,626.862L1120.5,734.8L1175.094,734.8L1175.094,510.8L1124.094,510.8L1124.094,585.066C1124.094,611.831,1128.594,644.0029999999999,1131.297,667.7529999999999L1129.797,667.7529999999999L1107.891,618.144L1052.391,510.8L997.797,510.8L997.797,734.8ZM1226.797,734.8L1280.5,734.8L1280.5,510.8L1226.797,510.8L1226.797,734.8ZM1426.297,738.8C1455.3899999999999,738.8,1480.3,727.706,1499.19,705.8L1471,672.3C1460.5,683.644,1446.3899999999999,692.6120000000001,1428.391,692.6120000000001C1396.891,692.6120000000001,1376.5,666.925,1376.5,622.706C1376.5,579.394,1400.188,553.706,1429,553.706C1444.8899999999999,553.706,1456.5900000000001,560.8779999999999,1468,571.034L1495.89,536.909C1480.59,521.316,1457.19,507.8,1428.094,507.8C1371.391,507.8,1321.594,550.409,1321.594,624.5029999999999C1321.594,699.8,1369.594,738.8,1426.297,738.8ZM1531.8,734.8L1676.69,734.8L1676.69,689.8L1585.5,689.8L1585.5,641.816L1660.19,641.816L1660.19,596.8L1585.5,596.8L1585.5,555.5029999999999L1673.39,555.5029999999999L1673.39,510.8L1531.8,510.8L1531.8,734.8Z" fill="#FFFFFF" fill-opacity="1"/></g></g></svg>